<svg id="Capa_1" data-name="Capa 1" xmlns="http://www.w3.org/2000/svg" viewBox="0 0 117.11 125.92"><defs><style>.cls-1{fill:#fff;}</style></defs><title>repositorio</title><path class="cls-1" d="M64.49,126.36H24.84A23.61,23.61,0,0,1,1.25,102.77V42.71A17.08,17.08,0,0,1,8.77,28.55a2.34,2.34,0,0,1,2.62,3.87A12.4,12.4,0,0,0,5.91,42.71v60.06a19,19,0,0,0,18.93,18.92H64.49a12.33,12.33,0,0,0,11.56-7.88,2.34,2.34,0,0,1,4.35,1.7A17,17,0,0,1,64.49,126.36Z"/><path class="cls-1" d="M87.59,51.89a2.34,2.34,0,0,1-2.34-2.34V34.36A12.42,12.42,0,0,0,72.84,22H41.54a2.34,2.34,0,0,1,0-4.67h31.3A17.1,17.1,0,0,1,89.92,34.36V49.55A2.33,2.33,0,0,1,87.59,51.89Z"/><path class="cls-1" d="M72.84,118H26.67A17.09,17.09,0,0,1,9.6,100.93V34.36A17.09,17.09,0,0,1,26.67,17.28h6.66a2.34,2.34,0,0,1,0,4.67H26.67A12.43,12.43,0,0,0,14.26,34.36v66.57a12.42,12.42,0,0,0,12.41,12.41H72.84a12.41,12.41,0,0,0,12.41-12.41,2.34,2.34,0,0,1,4.67,0A17.1,17.1,0,0,1,72.84,118Z"/><path class="cls-1" d="M87.59,43.73H74.07A11.37,11.37,0,0,1,62.71,32.37v-11a2.33,2.33,0,0,1,3.88-1.75l22.55,20a2.34,2.34,0,0,1-1.55,4.08ZM67.37,26.57v5.8a6.7,6.7,0,0,0,6.7,6.69h7.37Z"/><path class="cls-1" d="M93.13,102.12a22.8,22.8,0,1,1,22.79-22.79A22.82,22.82,0,0,1,93.13,102.12Zm0-40.92a18.13,18.13,0,1,0,18.13,18.13A18.15,18.15,0,0,0,93.13,61.2Z"/><path class="cls-1" d="M69.78,55.72H29.22a2.34,2.34,0,0,1,0-4.67H69.78a2.34,2.34,0,0,1,0,4.67Z"/><path class="cls-1" d="M35.8,45.73H29.22a2.34,2.34,0,0,1,0-4.67H35.8a2.34,2.34,0,0,1,0,4.67Z"/><path class="cls-1" d="M67.75,66.37H29.22a2.34,2.34,0,0,1,0-4.67H67.75a2.34,2.34,0,0,1,0,4.67Z"/><path class="cls-1" d="M64.15,77H29.22a2.33,2.33,0,0,1,0-4.66H64.15a2.33,2.33,0,0,1,0,4.66Z"/><path class="cls-1" d="M63.58,87.66H29.22a2.33,2.33,0,0,1,0-4.66H63.58a2.33,2.33,0,0,1,0,4.66Z"/><path class="cls-1" d="M67.75,98.31H29.22a2.33,2.33,0,0,1,0-4.66H67.75a2.33,2.33,0,0,1,0,4.66Z"/><path class="cls-1" d="M101.51,83.59H93.13a2.33,2.33,0,0,1-2.33-2.33V68.69a2.33,2.33,0,0,1,4.66,0V78.92h6.05a2.34,2.34,0,1,1,0,4.67Z"/><path class="cls-1" d="M37.44,36.7A6.45,6.45,0,0,1,31,30.26V11.1a10.55,10.55,0,1,1,21.09,0v8.52a2.33,2.33,0,1,1-4.66,0V11.1a5.89,5.89,0,0,0-11.77,0V30.26a1.78,1.78,0,1,0,3.55,0V12.32a2.34,2.34,0,1,1,4.67,0V30.26A6.45,6.45,0,0,1,37.44,36.7Z"/></svg>