<svg id="Capa_1" data-name="Capa 1" xmlns="http://www.w3.org/2000/svg" viewBox="0 0 117.11 125.92"><defs><style>.cls-1{fill:none;stroke:#000;stroke-linecap:round;stroke-linejoin:round;stroke-width:4.67px;}</style></defs><title>repositorio</title><path class="cls-1" d="M78.23,114.66A14.76,14.76,0,0,1,64.49,124H24.84A21.26,21.26,0,0,1,3.58,102.77V42.71a14.74,14.74,0,0,1,6.5-12.23"/><path class="cls-1" d="M41.54,19.62h31.3A14.74,14.74,0,0,1,87.59,34.36V49.55"/><path class="cls-1" d="M87.59,100.93a14.75,14.75,0,0,1-14.75,14.75H26.67a14.74,14.74,0,0,1-14.74-14.75V34.36A14.74,14.74,0,0,1,26.67,19.62h6.66"/><path class="cls-1" d="M65,21.39l22.55,20H74.07a9,9,0,0,1-9-9Z"/><path class="cls-1" d="M93.13,58.87a20.46,20.46,0,1,0,20.46,20.46A20.48,20.48,0,0,0,93.13,58.87Z"/><line class="cls-1" x1="29.22" y1="53.38" x2="69.78" y2="53.38"/><line class="cls-1" x1="29.22" y1="43.39" x2="35.8" y2="43.39"/><line class="cls-1" x1="29.22" y1="64.03" x2="67.75" y2="64.03"/><line class="cls-1" x1="29.22" y1="74.68" x2="64.15" y2="74.68"/><line class="cls-1" x1="29.22" y1="85.33" x2="63.58" y2="85.33"/><line class="cls-1" x1="29.22" y1="95.98" x2="67.75" y2="95.98"/><polyline class="cls-1" points="93.13 68.69 93.13 81.26 101.51 81.26"/><path class="cls-1" d="M49.76,19.62V11.1a8.22,8.22,0,0,0-8.22-8.22h0a8.22,8.22,0,0,0-8.21,8.22V30.26a4.11,4.11,0,0,0,4.11,4.11h0a4.1,4.1,0,0,0,4.1-4.11V12.32"/></svg>