<svg id="Capa_1" data-name="Capa 1" xmlns="http://www.w3.org/2000/svg" viewBox="0 0 136.08 100.66"><defs><style>.cls-1{fill:none;stroke:#000;stroke-linecap:round;stroke-linejoin:round;stroke-width:4.67px;}</style></defs><title>repositorio</title><polyline class="cls-1" points="88.84 3.3 9.27 3.3 2.33 17.84 133.75 17.84 126.81 3.3 96.73 3.3"/><line class="cls-1" x1="6.25" y1="25.45" x2="129.83" y2="25.45"/><line class="cls-1" x1="2.94" y1="33.07" x2="133.14" y2="33.07"/><line class="cls-1" x1="5.33" y1="33.07" x2="5.33" y2="84.98"/><line class="cls-1" x1="15.24" y1="33.41" x2="15.24" y2="84.64"/><line class="cls-1" x1="33.13" y1="33.07" x2="33.13" y2="84.98"/><line class="cls-1" x1="43.04" y1="33.41" x2="43.04" y2="84.64"/><line class="cls-1" x1="102.95" y1="33.07" x2="102.95" y2="84.98"/><line class="cls-1" x1="93.04" y1="33.41" x2="93.04" y2="84.64"/><line class="cls-1" x1="130.75" y1="33.07" x2="130.75" y2="84.98"/><line class="cls-1" x1="120.84" y1="33.41" x2="120.84" y2="84.64"/><polyline class="cls-1" points="54.7 84.98 54.7 53.83 81.37 53.83 81.37 84.98"/><line class="cls-1" x1="68.04" y1="54.18" x2="68.04" y2="84.98"/><line class="cls-1" x1="49.96" y1="91.48" x2="86.12" y2="91.48"/><line class="cls-1" x1="47.24" y1="98.33" x2="88.84" y2="98.33"/><line class="cls-1" x1="2.91" y1="98.33" x2="38.95" y2="98.33"/><line class="cls-1" x1="97.13" y1="98.33" x2="133.12" y2="98.33"/><line class="cls-1" x1="2.94" y1="84.98" x2="133.14" y2="84.98"/></svg>