<svg id="Capa_1" data-name="Capa 1" xmlns="http://www.w3.org/2000/svg" viewBox="0 0 136.08 100.66"><defs><style>.cls-1{fill:#fff;}</style></defs><title>repositorio</title><path class="cls-1" d="M133.75,20.17H2.33a2.33,2.33,0,0,1-2.1-3.34L7.16,2.3A2.33,2.33,0,0,1,9.27,1H88.84a2.33,2.33,0,0,1,0,4.66H10.74L6,15.5h124l-4.71-9.87H96.73a2.33,2.33,0,1,1,0-4.66h30.08a2.34,2.34,0,0,1,2.11,1.32l6.93,14.54a2.33,2.33,0,0,1-2.1,3.34Z"/><path class="cls-1" d="M129.83,27.78H6.25a2.33,2.33,0,0,1,0-4.66H129.83a2.33,2.33,0,0,1,0,4.66Z"/><path class="cls-1" d="M133.14,35.4H2.94a2.34,2.34,0,1,1,0-4.67h130.2a2.34,2.34,0,1,1,0,4.67Z"/><path class="cls-1" d="M5.33,87.32A2.33,2.33,0,0,1,3,85V33.07a2.34,2.34,0,1,1,4.67,0V85A2.34,2.34,0,0,1,5.33,87.32Z"/><path class="cls-1" d="M15.24,87a2.33,2.33,0,0,1-2.34-2.33V33.41a2.34,2.34,0,0,1,4.67,0V84.64A2.33,2.33,0,0,1,15.24,87Z"/><path class="cls-1" d="M33.13,87.32A2.33,2.33,0,0,1,30.8,85V33.07a2.33,2.33,0,1,1,4.66,0V85A2.33,2.33,0,0,1,33.13,87.32Z"/><path class="cls-1" d="M43,87a2.33,2.33,0,0,1-2.34-2.33V33.41a2.34,2.34,0,0,1,4.67,0V84.64A2.33,2.33,0,0,1,43,87Z"/><path class="cls-1" d="M103,87.32A2.33,2.33,0,0,1,100.62,85V33.07a2.33,2.33,0,1,1,4.66,0V85A2.33,2.33,0,0,1,103,87.32Z"/><path class="cls-1" d="M93,87a2.33,2.33,0,0,1-2.33-2.33V33.41a2.34,2.34,0,0,1,4.67,0V84.64A2.33,2.33,0,0,1,93,87Z"/><path class="cls-1" d="M130.75,87.32A2.34,2.34,0,0,1,128.41,85V33.07a2.34,2.34,0,1,1,4.67,0V85A2.33,2.33,0,0,1,130.75,87.32Z"/><path class="cls-1" d="M120.84,87a2.33,2.33,0,0,1-2.33-2.33V33.41a2.34,2.34,0,0,1,4.67,0V84.64A2.33,2.33,0,0,1,120.84,87Z"/><path class="cls-1" d="M81.37,87.32A2.34,2.34,0,0,1,79,85V56.17H57V85a2.34,2.34,0,1,1-4.67,0V53.83a2.33,2.33,0,0,1,2.34-2.33H81.37a2.33,2.33,0,0,1,2.34,2.33V85A2.34,2.34,0,0,1,81.37,87.32Z"/><path class="cls-1" d="M68,87.32A2.33,2.33,0,0,1,65.71,85V54.18a2.33,2.33,0,1,1,4.66,0V85A2.33,2.33,0,0,1,68,87.32Z"/><path class="cls-1" d="M86.12,93.82H50a2.34,2.34,0,1,1,0-4.67H86.12a2.34,2.34,0,1,1,0,4.67Z"/><path class="cls-1" d="M88.84,100.66H47.24a2.33,2.33,0,0,1,0-4.66h41.6a2.33,2.33,0,0,1,0,4.66Z"/><path class="cls-1" d="M39,100.66h-36a2.33,2.33,0,0,1,0-4.66H39a2.33,2.33,0,1,1,0,4.66Z"/><path class="cls-1" d="M133.12,100.66h-36a2.33,2.33,0,1,1,0-4.66h36a2.33,2.33,0,0,1,0,4.66Z"/><path class="cls-1" d="M133.14,87.32H2.94a2.34,2.34,0,1,1,0-4.67h130.2a2.34,2.34,0,1,1,0,4.67Z"/></svg>