<svg id="Capa_1" data-name="Capa 1" xmlns="http://www.w3.org/2000/svg" viewBox="0 0 125.41 98.68"><defs><style>.cls-1{fill:#314a6e;}</style></defs><title>repositorio</title><path class="cls-1" d="M123.07,98.68H15.87A15.89,15.89,0,0,1,0,82.81V2.33a2.34,2.34,0,0,1,4.67,0V82.81A11.21,11.21,0,0,0,15.87,94h107.2a2.34,2.34,0,1,1,0,4.67Z"/><path class="cls-1" d="M41.37,83.36A2.33,2.33,0,0,1,39,81v-16a.85.85,0,0,0-.85-.85H22.24a.86.86,0,0,0-.86.85V81a2.33,2.33,0,0,1-4.66,0v-16a5.52,5.52,0,0,1,5.52-5.52h16a5.53,5.53,0,0,1,5.52,5.52V81A2.33,2.33,0,0,1,41.37,83.36Z"/><path class="cls-1" d="M75.88,82.55a2.33,2.33,0,0,1-2.33-2.33V53.07a1.66,1.66,0,0,0-1.67-1.66H57.56a1.66,1.66,0,0,0-1.67,1.66V80.22a2.33,2.33,0,1,1-4.66,0V53.07a6.34,6.34,0,0,1,6.33-6.33H71.88a6.34,6.34,0,0,1,6.33,6.33V80.22A2.33,2.33,0,0,1,75.88,82.55Z"/><path class="cls-1" d="M110.39,81.7a2.34,2.34,0,0,1-2.34-2.34v-42a2.52,2.52,0,0,0-2.52-2.52H92.92a2.52,2.52,0,0,0-2.52,2.52v42a2.34,2.34,0,1,1-4.67,0v-42a7.2,7.2,0,0,1,7.19-7.19h12.61a7.2,7.2,0,0,1,7.19,7.19v42A2.34,2.34,0,0,1,110.39,81.7Z"/><path class="cls-1" d="M21.33,46a2.34,2.34,0,0,1-.06-4.67c.38,0,35.4-1.41,65-37.27a2.33,2.33,0,1,1,3.59,3c-31,37.6-67,38.93-68.47,39Z"/><path class="cls-1" d="M89.4,21.16a2.34,2.34,0,0,1-2.32-2.1L86,8.1,73.74,9.33a2.33,2.33,0,1,1-.47-4.64L87.83,3.22a2.34,2.34,0,0,1,2.56,2.09l1.33,13.28a2.33,2.33,0,0,1-2.08,2.56Z"/></svg>