<svg id="Capa_1" data-name="Capa 1" xmlns="http://www.w3.org/2000/svg" viewBox="0 0 118.49 115.07"><defs><style>.cls-1{fill:none;stroke:#000;stroke-linecap:round;stroke-linejoin:round;stroke-width:4.67px;}</style></defs><title>repositorio</title><path class="cls-1" d="M58.54,22.5a28.89,28.89,0,0,1,.68,6.21A28.54,28.54,0,0,1,30.68,57.25"/><path class="cls-1" d="M84.21,62a28.44,28.44,0,0,1-1.53,3.39"/><path class="cls-1" d="M81.76,37A28.54,28.54,0,0,1,85.9,54.58"/><path class="cls-1" d="M46.37,11.3a24.62,24.62,0,0,1,3.74,6.09"/><path class="cls-1" d="M17.26,50.06A24.91,24.91,0,1,1,46.37,11.3"/><path class="cls-1" d="M23.35,51.83a24.55,24.55,0,0,1-6.09-1.77"/><circle class="cls-1" cx="59.22" cy="52.14" r="35.92"/><path class="cls-1" d="M79.47,82.59l28.78,28.79a4.63,4.63,0,0,0,6.55,0h0a4.63,4.63,0,0,0,0-6.55L86,76"/><path d="M39.36,27q-1.63,1.68-3.11,3.53a6.87,6.87,0,0,1,1.69,1.08A3.61,3.61,0,0,1,39,34.33,3.69,3.69,0,0,1,37.5,37.4a6.57,6.57,0,0,1-4.08,1.19,11.79,11.79,0,0,1-2.23-.22C30.58,39.56,30,40.78,29.52,42a5.45,5.45,0,0,0,.58.14l-.32,6.09v.48a2.63,2.63,0,0,0,.4,1.64,1.53,1.53,0,0,0,1.3.52A2,2,0,0,0,33,50.34a2.85,2.85,0,0,0,.54-1.76l.32-6.25a11.8,11.8,0,0,0,7.15-2.5,7.26,7.26,0,0,0,2.63-5.77,7.47,7.47,0,0,0-1.85-5.16A9.51,9.51,0,0,0,39.36,27Z"/><path d="M24.36,42v.38a3.34,3.34,0,0,0,.08.76A36.18,36.18,0,0,1,28,34.47a6.53,6.53,0,0,1-.78.05,8.87,8.87,0,0,1-3.32-.64,4,4,0,0,1-2.05-1.4,4,4,0,0,1-.25-.69q-.54-1.62-1.74-1.62a1.64,1.64,0,0,0-1.24.48,1.7,1.7,0,0,0-.47,1.23v2.89a2.2,2.2,0,0,0,.48,1.5,1.65,1.65,0,0,0,1.31.56,1.5,1.5,0,0,0,.83-.23,2.26,2.26,0,0,0,.65-.71,8.94,8.94,0,0,0,1.6.9,6.61,6.61,0,0,0,1.64.49Z"/><path d="M23.24,26.05l3.64,1.23a11.55,11.55,0,0,1,3.78,1.84,2.84,2.84,0,0,1,.48.63A35.79,35.79,0,0,1,33.6,27a10.14,10.14,0,0,0-4.39-2.51l-4-1.33a5.29,5.29,0,0,1-2.33-1.36,3,3,0,0,1-.79-2.05,2.79,2.79,0,0,1,1.27-2.37,5.72,5.72,0,0,1,3.37-.89,6.88,6.88,0,0,1,2.64.47,2.89,2.89,0,0,1,1.54,1.32,3.71,3.71,0,0,1,.21.49Q31.71,20,32.74,20a1.4,1.4,0,0,0,1.08-.4,1.67,1.67,0,0,0,.38-1.18V15.91a2.22,2.22,0,0,0-.31-1.33,1.26,1.26,0,0,0-1-.38,1.37,1.37,0,0,0-.69.18,2.06,2.06,0,0,0-.62.55,13.84,13.84,0,0,0-1.43-.59c-.49-.18-1-.33-1.51-.47l.13-1.67V12a1.54,1.54,0,0,0-.38-1.11,1.41,1.41,0,0,0-1.08-.38,1.43,1.43,0,0,0-1.08.42,2.14,2.14,0,0,0-.46,1.28l-.08,1.58a8.63,8.63,0,0,0-5.17,1.89A5.51,5.51,0,0,0,18.64,20a6,6,0,0,0,1.25,3.71A6.89,6.89,0,0,0,23.24,26.05Z"/></svg>