<svg id="Capa_1" data-name="Capa 1" xmlns="http://www.w3.org/2000/svg" viewBox="0 0 118.49 115.07"><defs><style>.cls-1{fill:#fff;}</style></defs><title>repositorio</title><path class="cls-1" d="M30.68,59.58a2.33,2.33,0,1,1,0-4.66A26.24,26.24,0,0,0,56.89,28.71a25.8,25.8,0,0,0-.63-5.7,2.34,2.34,0,1,1,4.56-1A30.9,30.9,0,0,1,30.68,59.58Z"/><path class="cls-1" d="M82.68,67.75a2.33,2.33,0,0,1-2.06-3.43A24.05,24.05,0,0,0,82,61.21a2.34,2.34,0,0,1,4.38,1.63,30.29,30.29,0,0,1-1.66,3.67A2.34,2.34,0,0,1,82.68,67.75Z"/><path class="cls-1" d="M85.9,56.92h-.21a2.33,2.33,0,0,1-2.11-2.53,26.44,26.44,0,0,0-3.81-16.16,2.33,2.33,0,1,1,4-2.45,31,31,0,0,1,4.48,19A2.32,2.32,0,0,1,85.9,56.92Z"/><path class="cls-1" d="M50.11,19.72A2.34,2.34,0,0,1,48,18.31a22.71,22.71,0,0,0-3.39-5.52,2.33,2.33,0,0,1,3.58-3,27.19,27.19,0,0,1,4.09,6.66A2.33,2.33,0,0,1,51,19.53,2.38,2.38,0,0,1,50.11,19.72Z"/><path class="cls-1" d="M17.26,52.39a2.27,2.27,0,0,1-.94-.2A27.24,27.24,0,1,1,48.16,9.8a2.33,2.33,0,1,1-3.58,3A22.57,22.57,0,1,0,18.2,47.92a2.33,2.33,0,0,1-.94,4.47Z"/><path class="cls-1" d="M23.35,54.17l-.36,0a27.17,27.17,0,0,1-6.67-2,2.33,2.33,0,1,1,1.88-4.27,22.36,22.36,0,0,0,5.51,1.61,2.33,2.33,0,0,1-.36,4.64Z"/><path class="cls-1" d="M59.22,90.38A38.25,38.25,0,1,1,97.47,52.14,38.29,38.29,0,0,1,59.22,90.38Zm0-71.83A33.59,33.59,0,1,0,92.8,52.14,33.62,33.62,0,0,0,59.22,18.55Z"/><path class="cls-1" d="M111.53,115.07a7,7,0,0,1-4.93-2L77.82,84.24a2.33,2.33,0,0,1,3.3-3.3l28.78,28.79a2.29,2.29,0,0,0,3.25,0,2.28,2.28,0,0,0,0-3.25L84.37,77.69a2.33,2.33,0,0,1,3.3-3.3l28.78,28.79a7,7,0,0,1-4.92,11.89Z"/><path class="cls-1" d="M39.36,27q-1.63,1.68-3.11,3.53a6.87,6.87,0,0,1,1.69,1.08A3.61,3.61,0,0,1,39,34.33,3.69,3.69,0,0,1,37.5,37.4a6.57,6.57,0,0,1-4.08,1.19,11.79,11.79,0,0,1-2.23-.22C30.58,39.56,30,40.78,29.52,42a5.45,5.45,0,0,0,.58.14l-.32,6.09v.48a2.63,2.63,0,0,0,.4,1.64,1.53,1.53,0,0,0,1.3.52A2,2,0,0,0,33,50.34a2.85,2.85,0,0,0,.54-1.76l.32-6.25a11.8,11.8,0,0,0,7.15-2.5,7.26,7.26,0,0,0,2.63-5.77,7.47,7.47,0,0,0-1.85-5.16A9.51,9.51,0,0,0,39.36,27Z"/><path class="cls-1" d="M24.36,42v.38a3.34,3.34,0,0,0,.08.76A36.18,36.18,0,0,1,28,34.47a6.53,6.53,0,0,1-.78.05,8.87,8.87,0,0,1-3.32-.64,4,4,0,0,1-2.05-1.4,4,4,0,0,1-.25-.69q-.54-1.62-1.74-1.62a1.64,1.64,0,0,0-1.24.48,1.7,1.7,0,0,0-.47,1.23v2.89a2.2,2.2,0,0,0,.48,1.5,1.65,1.65,0,0,0,1.31.56,1.5,1.5,0,0,0,.83-.23,2.26,2.26,0,0,0,.65-.71,8.94,8.94,0,0,0,1.6.9,6.61,6.61,0,0,0,1.64.49Z"/><path class="cls-1" d="M23.24,26.05l3.64,1.23a11.55,11.55,0,0,1,3.78,1.84,2.84,2.84,0,0,1,.48.63A35.79,35.79,0,0,1,33.6,27a10.14,10.14,0,0,0-4.39-2.51l-4-1.33a5.29,5.29,0,0,1-2.33-1.36,3,3,0,0,1-.79-2.05,2.79,2.79,0,0,1,1.27-2.37,5.72,5.72,0,0,1,3.37-.89,6.88,6.88,0,0,1,2.64.47,2.89,2.89,0,0,1,1.54,1.32,3.71,3.71,0,0,1,.21.49Q31.71,20,32.74,20a1.4,1.4,0,0,0,1.08-.4,1.67,1.67,0,0,0,.38-1.18V15.91a2.22,2.22,0,0,0-.31-1.33,1.26,1.26,0,0,0-1-.38,1.37,1.37,0,0,0-.69.18,2.06,2.06,0,0,0-.62.55,13.84,13.84,0,0,0-1.43-.59c-.49-.18-1-.33-1.51-.47l.13-1.67V12a1.54,1.54,0,0,0-.38-1.11,1.41,1.41,0,0,0-1.08-.38,1.43,1.43,0,0,0-1.08.42,2.14,2.14,0,0,0-.46,1.28l-.08,1.58a8.63,8.63,0,0,0-5.17,1.89A5.51,5.51,0,0,0,18.64,20a6,6,0,0,0,1.25,3.71A6.89,6.89,0,0,0,23.24,26.05Z"/></svg>