<svg id="Capa_1" data-name="Capa 1" xmlns="http://www.w3.org/2000/svg" viewBox="0 0 84.97 123.5"><defs><style>.cls-1{fill:none;stroke:#000;stroke-linecap:round;stroke-linejoin:round;stroke-width:4.67px;}</style></defs><title>repositorio</title><path class="cls-1" d="M82.64,25.37v91.69a4.11,4.11,0,0,1-4.11,4.11H16.87A14.54,14.54,0,0,1,2.33,106.63V13.48"/><path class="cls-1" d="M82.64,2.33H13.48A11.15,11.15,0,0,0,2.33,13.48h0A11.15,11.15,0,0,0,13.48,24.63H82.64"/><line class="cls-1" x1="15.41" y1="13.48" x2="80.87" y2="13.48"/><path d="M35.06,76.4h1.78a3.7,3.7,0,0,1,2.11.43,1.28,1.28,0,0,1,.35,1.4,2.23,2.23,0,0,1-.88,1.49,5,5,0,0,1-2.51.42h-7a1.68,1.68,0,0,1-1.37-.48,1.61,1.61,0,0,1-.19-1.43,2.07,2.07,0,0,1,.86-1.43,4.61,4.61,0,0,1,2.24-.4h.47L36,52.56h-.43a3.53,3.53,0,0,1-2.09-.42,1.49,1.49,0,0,1-.29-1.49A2.37,2.37,0,0,1,34,49.21a2.57,2.57,0,0,1,1.63-.46h6.66a4.9,4.9,0,0,1,2.6.41c.32.27.39.77.24,1.49a2,2,0,0,1-1,1.49,6.58,6.58,0,0,1-2.79.42h-1.2l-2,9.21H50.86l2-9.21H51A3.42,3.42,0,0,1,49,52.11a1.38,1.38,0,0,1-.35-1.46,2.16,2.16,0,0,1,.93-1.49,7,7,0,0,1,3-.41H59a1.35,1.35,0,0,1,1.51,1.9,2.21,2.21,0,0,1-.86,1.47,3.81,3.81,0,0,1-2.08.44H57L51.87,76.4h.42a3.61,3.61,0,0,1,2.09.41,1.36,1.36,0,0,1,.29,1.42,2.26,2.26,0,0,1-.87,1.49,5.46,5.46,0,0,1-2.65.42H45.68A5,5,0,0,1,43,79.72c-.34-.27-.42-.77-.27-1.49a2,2,0,0,1,1-1.43,6.52,6.52,0,0,1,2.7-.4h1.3l2.35-11H37.42Z"/><line class="cls-1" x1="23.5" y1="97.65" x2="61.47" y2="97.65"/><line class="cls-1" x1="32.53" y1="104.73" x2="52.44" y2="104.73"/></svg>