<svg id="Capa_1" data-name="Capa 1" xmlns="http://www.w3.org/2000/svg" viewBox="0 0 84.97 123.5"><defs><style>.cls-1{fill:#314a6e;}</style></defs><title>repositorio</title><path class="cls-1" d="M78.53,123.51H16.87A16.89,16.89,0,0,1,0,106.63V13.48a2.34,2.34,0,0,1,4.67,0v93.15a12.22,12.22,0,0,0,12.2,12.21H78.53a1.78,1.78,0,0,0,1.77-1.78V25.37a2.34,2.34,0,1,1,4.67,0v91.69A6.45,6.45,0,0,1,78.53,123.51Z"/><path class="cls-1" d="M82.64,27H13.48a13.48,13.48,0,0,1,0-27H82.64a2.34,2.34,0,0,1,0,4.67H13.48a8.81,8.81,0,0,0,0,17.62H82.64a2.34,2.34,0,0,1,0,4.67Z"/><path class="cls-1" d="M80.87,15.81H15.41a2.33,2.33,0,0,1,0-4.66H80.87a2.33,2.33,0,0,1,0,4.66Z"/><path class="cls-1" d="M35.06,76.4h1.78a3.7,3.7,0,0,1,2.11.43,1.28,1.28,0,0,1,.35,1.4,2.23,2.23,0,0,1-.88,1.49,5,5,0,0,1-2.51.42h-7a1.68,1.68,0,0,1-1.37-.48,1.61,1.61,0,0,1-.19-1.43,2.07,2.07,0,0,1,.86-1.43,4.61,4.61,0,0,1,2.24-.4h.47L36,52.56h-.43a3.53,3.53,0,0,1-2.09-.42,1.49,1.49,0,0,1-.29-1.49A2.37,2.37,0,0,1,34,49.21a2.57,2.57,0,0,1,1.63-.46h6.66a4.9,4.9,0,0,1,2.6.41c.32.27.39.77.24,1.49a2,2,0,0,1-1,1.49,6.58,6.58,0,0,1-2.79.42h-1.2l-2,9.21H50.86l2-9.21H51A3.42,3.42,0,0,1,49,52.11a1.38,1.38,0,0,1-.35-1.46,2.16,2.16,0,0,1,.93-1.49,7,7,0,0,1,3-.41H59a1.35,1.35,0,0,1,1.51,1.9,2.21,2.21,0,0,1-.86,1.47,3.81,3.81,0,0,1-2.08.44H57L51.87,76.4h.42a3.61,3.61,0,0,1,2.09.41,1.36,1.36,0,0,1,.29,1.42,2.26,2.26,0,0,1-.87,1.49,5.46,5.46,0,0,1-2.65.42H45.68A5,5,0,0,1,43,79.72c-.34-.27-.42-.77-.27-1.49a2,2,0,0,1,1-1.43,6.52,6.52,0,0,1,2.7-.4h1.3l2.35-11H37.42Z"/><path class="cls-1" d="M61.47,100h-38a2.33,2.33,0,1,1,0-4.66h38a2.33,2.33,0,0,1,0,4.66Z"/><path class="cls-1" d="M52.44,107.06H32.53a2.34,2.34,0,0,1,0-4.67H52.44a2.34,2.34,0,0,1,0,4.67Z"/></svg>