<svg id="Capa_1" data-name="Capa 1" xmlns="http://www.w3.org/2000/svg" viewBox="0 0 105.79 125.92"><defs><style>.cls-1{fill:#fff;}</style></defs><title>repositorio</title><path class="cls-1" d="M64.49,126.36H24.84A23.61,23.61,0,0,1,1.25,102.77V42.71A17.08,17.08,0,0,1,8.77,28.55a2.34,2.34,0,0,1,2.62,3.87A12.4,12.4,0,0,0,5.91,42.71v60.06a19,19,0,0,0,18.93,18.92H64.49a12.33,12.33,0,0,0,11.56-7.88,2.34,2.34,0,0,1,4.35,1.7A17,17,0,0,1,64.49,126.36Z"/><path class="cls-1" d="M87.59,59.32A2.34,2.34,0,0,1,85.25,57V34.36A12.42,12.42,0,0,0,72.84,22H41.54a2.34,2.34,0,0,1,0-4.67h31.3A17.1,17.1,0,0,1,89.92,34.36V57A2.33,2.33,0,0,1,87.59,59.32Z"/><path class="cls-1" d="M85.25,100.93a12.4,12.4,0,0,1-12.41,12.41H26.67a12.41,12.41,0,0,1-12.41-12.41V34.36A12.41,12.41,0,0,1,26.67,22H33.2a2.42,2.42,0,0,0,2.45-2.09,2.34,2.34,0,0,0-2.32-2.58H26.67A17.08,17.08,0,0,0,9.6,34.36v66.57A17.08,17.08,0,0,0,26.67,118H72.84a17.08,17.08,0,0,0,17.08-17.08V91.69a2.33,2.33,0,0,0-2.33-2.33h0a2.33,2.33,0,0,0-2.34,2.33Z"/><path class="cls-1" d="M87.59,43.73H74.07A11.37,11.37,0,0,1,62.71,32.37v-11a2.33,2.33,0,0,1,3.88-1.75l22.55,20a2.34,2.34,0,0,1-1.55,4.08ZM67.37,26.57v5.8a6.7,6.7,0,0,0,6.7,6.69h7.37Z"/><path class="cls-1" d="M63.32,55.72H29.22a2.34,2.34,0,0,1,0-4.67h34.1a2.34,2.34,0,0,1,0,4.67Z"/><path class="cls-1" d="M35.8,45.73H29.22a2.34,2.34,0,0,1,0-4.67H35.8a2.34,2.34,0,0,1,0,4.67Z"/><path class="cls-1" d="M41.13,66.37H29.22a2.34,2.34,0,0,1,0-4.67H41.13a2.34,2.34,0,0,1,0,4.67Z"/><path class="cls-1" d="M40.2,77h-11a2.33,2.33,0,0,1,0-4.66h11a2.33,2.33,0,0,1,0,4.66Z"/><path class="cls-1" d="M39.63,87.66H29.22a2.33,2.33,0,0,1,0-4.66H39.63a2.33,2.33,0,0,1,0,4.66Z"/><path class="cls-1" d="M65.65,98.31H29.22a2.33,2.33,0,0,1,0-4.66H65.65a2.33,2.33,0,0,1,0,4.66Z"/><path class="cls-1" d="M37.44,36.7A6.45,6.45,0,0,1,31,30.26V11.1a10.55,10.55,0,1,1,21.09,0v8.52a2.33,2.33,0,1,1-4.66,0V11.1a5.89,5.89,0,0,0-11.77,0V30.26a1.78,1.78,0,1,0,3.55,0V12.32a2.34,2.34,0,1,1,4.67,0V30.26A6.45,6.45,0,0,1,37.44,36.7Z"/><path class="cls-1" d="M53.36,75.27H51.87V82a2.8,2.8,0,0,1-.59,2,2,2,0,0,1-1.53.63,1.93,1.93,0,0,1-1.57-.66A2.92,2.92,0,0,1,47.62,82V65.87a2.22,2.22,0,0,1,2.6-2.6h6.91a21.29,21.29,0,0,1,2.45.12,6.3,6.3,0,0,1,1.83.49,5.49,5.49,0,0,1,1.75,1.19,5.23,5.23,0,0,1,1.15,1.8A6,6,0,0,1,64.7,69a5.23,5.23,0,0,1-1.32,3.75,7.55,7.55,0,0,1-4,2,7.74,7.74,0,0,1,2.16,1.78A18.61,18.61,0,0,1,63.37,79a20.05,20.05,0,0,1,1.25,2.39,4.54,4.54,0,0,1,.46,1.47,1.46,1.46,0,0,1-.27.82,2,2,0,0,1-.72.65A2.39,2.39,0,0,1,63,84.6a2,2,0,0,1-1.2-.34,3,3,0,0,1-.84-.85c-.23-.34-.55-.85-1-1.51l-1.7-2.84a15.38,15.38,0,0,0-1.64-2.37,4.06,4.06,0,0,0-1.47-1.12A5.05,5.05,0,0,0,53.36,75.27Zm2.43-8.81H51.87v5.76h3.81A10.49,10.49,0,0,0,58.25,72a3.08,3.08,0,0,0,1.6-.9,3,3,0,0,0,.1-3.29,2.6,2.6,0,0,0-1.23-1A8.84,8.84,0,0,0,55.79,66.46Z"/><path class="cls-1" d="M75.6,76.07H71.71V82a2.77,2.77,0,0,1-.6,1.93,2,2,0,0,1-1.51.66A2,2,0,0,1,68.05,84,2.76,2.76,0,0,1,67.46,82V65.87a2.64,2.64,0,0,1,.65-2,2.93,2.93,0,0,1,2-.6H75.6a14.13,14.13,0,0,1,3.72.37,5.46,5.46,0,0,1,2.23,1.19,5.33,5.33,0,0,1,1.42,2,7,7,0,0,1,.49,2.7,6,6,0,0,1-2,4.86Q79.51,76.07,75.6,76.07Zm-1-9.61H71.71v6.41h2.86a8.59,8.59,0,0,0,2.52-.32,2.89,2.89,0,0,0,1.53-1,3,3,0,0,0,.53-1.87,3.18,3.18,0,0,0-.81-2.26C77.73,66.77,76.47,66.46,74.57,66.46Z"/><path class="cls-1" d="M92.83,81.08,89.47,67.72V82.2a2.62,2.62,0,0,1-.54,1.8,2,2,0,0,1-2.82,0,2.58,2.58,0,0,1-.55-1.81V65.6a2.06,2.06,0,0,1,.72-1.85,3.42,3.42,0,0,1,1.93-.48h1.32a5.11,5.11,0,0,1,1.72.21,1.44,1.44,0,0,1,.79.78,10.88,10.88,0,0,1,.59,1.81l3.05,11.49,3-11.49a12.17,12.17,0,0,1,.58-1.81,1.46,1.46,0,0,1,.8-.78,5.07,5.07,0,0,1,1.72-.21h1.32a3.42,3.42,0,0,1,1.93.48,2.06,2.06,0,0,1,.71,1.85V82.2a2.62,2.62,0,0,1-.53,1.8,1.84,1.84,0,0,1-1.44.6,1.79,1.79,0,0,1-1.39-.6,2.62,2.62,0,0,1-.54-1.8V67.72L98.53,81.08c-.22.87-.4,1.51-.54,1.91a2.55,2.55,0,0,1-.77,1.11,2.23,2.23,0,0,1-1.54.5,2.36,2.36,0,0,1-1.26-.32,2.41,2.41,0,0,1-.8-.82,5,5,0,0,1-.45-1.11Z"/></svg>